<svg width="200" height="200" viewBox="0 0 200 200" xmlns="http://www.w3.org/2000/svg">
  <defs>
    <clipPath id="leftHalf">
      <rect x="0" y="0" width="100" height="200"/>
    </clipPath>
    <clipPath id="rightHalf">
      <rect x="100" y="0" width="100" height="200"/>
    </clipPath>
  </defs>
  <path d="M100 170 
           C 70 150, 30 110, 50 70 
           C 70 30, 100 50, 100 80 
           C 100 50, 130 30, 150 70 
           C 170 110, 130 150, 100 170" 
        fill="#e3672a" clip-path="url(#leftHalf)"/>
  <path d="M100 170 
           C 70 150, 30 110, 50 70 
           C 70 30, 100 50, 100 80 
           C 100 50, 130 30, 150 70 
           C 170 110, 130 150, 100 170" 
        fill="#06aa48" clip-path="url(#rightHalf)"/>
</svg>
